<svg width="48" height="48" viewBox="0 0 48 48" fill="none" xmlns="http://www.w3.org/2000/svg">
<path d="M2.49768 25.2907H2.28359C3.22914 25.1137 3.88032 24.2637 3.81788 23.3075C3.79112 22.9091 3.81788 1.87316 3.81788 1.87316C3.81788 0.704493 2.74745 -0.180859 1.58781 0.0316256H1.55213C0.651182 0.199843 0 0.978952 0 1.88201C0 1.88201 0.0178414 23.2987 0.0356819 23.5466C0.107044 24.6798 1.35588 25.5032 2.47984 25.2907" fill="#F0F7FE"/>
<path d="M29.3031 15.4633C29.3031 10.0184 24.8519 5.60048 19.3659 5.60048C13.8799 5.60048 9.4287 10.0184 9.4287 15.4633C9.4287 20.9082 13.8799 25.3261 19.3659 25.3261C24.8519 25.3261 29.3031 20.9082 29.3031 15.4633ZM25.6279 15.4633C25.6279 18.8985 22.827 21.6785 19.3659 21.6785C15.9048 21.6785 13.1039 18.8985 13.1039 15.4633C13.1039 12.0281 15.9048 9.24814 19.3659 9.24814C22.827 9.24814 25.6279 12.0281 25.6279 15.4633Z" fill="#F0F7FE"/>
<path d="M40.1502 5.66247C35.8149 5.66247 32.3003 9.15075 32.3003 13.4536C32.3003 17.7564 35.8149 21.2447 40.1502 21.2447C44.4854 21.2447 48 17.7564 48 13.4536C48 9.15075 44.4854 5.66247 40.1502 5.66247ZM40.1502 17.7829C37.7417 17.7829 35.7971 15.844 35.7971 13.4624C35.7971 11.0808 37.7417 9.1419 40.1502 9.1419C42.5586 9.1419 44.5033 11.0808 44.5033 13.4624C44.5033 15.844 42.5586 17.7829 40.1502 17.7829Z" fill="#F0F7FE"/>
<path d="M44.0127 20.138V25.3438C44.0127 25.397 44.0127 25.4412 44.0127 25.4855C43.3793 35.9415 34.6375 44.2373 23.942 44.2373C15.5927 44.2373 8.43859 39.1908 5.39678 32.0017C5.04889 31.1783 4.18362 30.7002 3.30051 30.8684C2.11411 31.0898 1.43617 32.3381 1.90895 33.4448C5.52166 41.9973 14.0138 48 23.942 48C36.8408 48 47.3489 37.845 47.8127 25.1579H47.8306V13.4624C47.8306 16.3044 46.2963 18.7745 44.0127 20.138Z" fill="#F0F7FE"/>
</svg>
